<?xml version="1.0" encoding="UTF-8" standalone="no"?>
<!-- Created with Inkscape (http://www.inkscape.org/) -->

<svg
   width="108.62381"
   height="196.71069"
   viewBox="0 0 28.740048 52.046371"
   version="1.1"
   id="svg1"
   xml:space="preserve"
   xmlns:xlink="http://www.w3.org/1999/xlink"
   xmlns="http://www.w3.org/2000/svg"
   xmlns:svg="http://www.w3.org/2000/svg"><defs
     id="defs1" /><g
     id="layer1"
     transform="translate(-115.89419,-125.94167)"><g
       id="g9"
       transform="translate(59.100934,125.28916)"><path
         style="fill:#b30022;fill-opacity:1;fill-rule:nonzero;stroke:none;stroke-width:0.3;stroke-linejoin:round;stroke-miterlimit:4.1;stroke-dasharray:none;stroke-opacity:1"
         d="m 20.115761,52.698878 c 0,0 13.517006,-10.122136 14.036375,-17.757712 C 34.916728,23.700387 27.05774,22.617468 23.234562,17.04521 19.411385,11.472952 22.345611,9.8857893 24.361546,9.9342273 c 1.81445,0.0436 3.80381,0.6813447 4.993734,-1.3556841 1.211753,-2.0743967 -2.251453,-6.4960468 -9.236872,-7.92604006 0,0 6.906793,4.55291376 4.445654,6.45717376 -1.707142,1.320869 -2.121278,-2.2458275 -7.169037,-1.0048559 -4.466876,1.0981637 -6.93334,5.049563 -4.658397,9.682146 2.49481,5.080309 10.076066,6.930137 9.533143,12.013306 -0.169936,1.591051 -2.137534,3.337104 -3.710776,3.045164 -2.426397,-0.450256 -3.952419,-2.266462 -3.657065,-6.437163 0.141012,-3.334867 -6.3150975,-6.508046 -6.3150975,-6.508046 0,0 2.5503395,2.631188 2.5338505,6.080007 -0.01017,2.126691 -5.4779561,6.212638 -5.6524971,11.27775 C 5.1809651,43.59302 20.115761,52.698878 20.115761,52.698878 Z"
         id="path6" /><path
         style="fill:#5d0409;fill-opacity:1;stroke:none;stroke-width:0.227363;stroke-linejoin:round;stroke-miterlimit:4.1;stroke-dasharray:none;stroke-opacity:1"
         d="m 20.029425,51.138626 c 0,0 11.761217,-10.228775 12.177731,-16.218561 0.560103,-8.054709 -4.584197,-12.831881 -8.771619,-14.203668 5.890125,4.277124 2.18138,13.569555 -3.888369,13.936522 -6.069749,0.366966 -7.901743,-5.409079 -6.615711,-9.292114 -2.567686,2.13843 -5.5203288,6.253978 -5.6431421,10.374802 -0.1800505,6.041338 12.7411101,15.403019 12.7411101,15.403019 z"
         id="path7" /><path
         style="fill:#5d0409;fill-opacity:1;stroke:none;stroke-width:0.3;stroke-linejoin:round;stroke-miterlimit:4.1;stroke-dasharray:none;stroke-opacity:1"
         d="M 21.898054,8.074513 C 18.781981,6.2177085 14.9238,7.5452115 13.544334,10.052312 12.239321,12.424098 12.7807,15.948531 16.19358,17.729378 13.518705,15.575643 13.692104,12.3305 15.048188,10.174398 16.319655,8.1528327 20.039952,7.4764117 21.898054,8.074513 Z"
         id="path8" /><path
         style="fill:#5d0409;fill-opacity:1;stroke:none;stroke-width:0.3;stroke-linejoin:round;stroke-miterlimit:4.1;stroke-dasharray:none;stroke-opacity:1"
         d="m 28.86724,8.1409665 c 0.441921,-1.0727463 -0.432815,-2.4157187 -1.320784,-3.2202852 0.579872,0.8958716 0.652274,2.2079916 0.220753,3.178385 -0.720282,1.6197512 -3.237315,1.1387776 -3.237315,1.1387776 0,0 3.45897,1.0353451 4.337346,-1.0968774 z"
         id="path9" /></g><use
       x="0"
       y="0"
       xlink:href="#g9"
       id="use53"
       transform="translate(51.329167)" /></g></svg>
